Coordinates
version=1
nRows=14
nColumns=40
inDegrees=yes

Units are S.I. units (second, meters, Newtons, ...)
Angles are in degrees.

endheader
time	pelvis_tilt	pelvis_list	pelvis_rotation	pelvis_tx	pelvis_ty	pelvis_tz	hip_flexion_r	hip_adduction_r	hip_rotation_r	knee_angle_r	knee_angle_r_beta	ankle_angle_r	subtalar_angle_r	mtp_angle_r	hip_flexion_l	hip_adduction_l	hip_rotation_l	knee_angle_l	knee_angle_l_beta	ankle_angle_l	subtalar_angle_l	mtp_angle_l	lumbar_extension	lumbar_bending	lumbar_rotation	arm_flex_r	arm_add_r	arm_rot_r	elbow_flex_r	pro_sup_r	wrist_flex_r	wrist_dev_r	arm_flex_l	arm_add_l	arm_rot_l	elbow_flex_l	pro_sup_l	wrist_flex_l	wrist_dev_l
     42.72500000	    -11.11601784	     -6.51446056	     -2.71682138	      0.97609668	      0.91245815	      0.43752074	     11.79988172	     -2.13296962	    -10.48769226	     34.39492902	     34.39492902	     13.15366131	     -4.67202136	     -6.75979497	     33.91022397	     -7.72152319	      0.15076528	     30.82622628	     30.82622628	     10.94428427	    -12.74401687	      6.74019915	     -8.95388376	      4.27400236	      4.15134821	     44.47421667	    -12.48839207	     -2.04533706	    132.68639830	     43.69227333	      0.00000000	      0.00000000	     -9.95063602	     -6.08365599	     11.93577808	     29.77616823	     44.22945512	      0.00000000	      0.00000000
     42.73657143	    -11.17940065	     -6.37844507	     -2.93202461	      0.97606503	      0.91432952	      0.43521701	     13.40993095	     -2.73212722	    -10.14951258	     37.78121846	     37.78121846	     12.03736393	     -6.40302367	     -6.72416127	     32.93181210	     -7.60670799	     -0.47509130	     30.09660760	     30.09660760	     11.37966353	    -12.20775239	      6.58215120	     -8.91594102	      4.14919021	      4.05175334	     42.10817659	    -12.76845090	     -1.72866937	    132.44858560	     43.67861974	      0.00000000	      0.00000000	     -8.58317259	     -6.45767759	     11.79085379	     30.14578526	     44.28124969	      0.00000000	      0.00000000
     42.74814286	    -11.22270304	     -6.31260847	     -3.11694658	      0.97593146	      0.91620524	      0.43305074	     15.02561584	     -3.18253474	     -9.77376448	     41.11389692	     41.11389692	     10.98983618	     -8.39849629	     -6.35129740	     31.92883619	     -7.54868596	     -1.04966773	     29.32169747	     29.32169747	     11.76605816	    -11.57593955	      6.35948255	     -8.90731483	      4.11972172	      4.04759657	     39.57452062	    -13.20698023	     -1.47567809	    131.89718397	     43.67728404	      0.00000000	      0.00000000	     -7.13449764	     -6.87966389	     11.58479053	     30.60121529	     44.34513422	      0.00000000	      0.00000000
     42.75971429	    -11.15064694	     -6.23021714	     -3.22851278	      0.97573994	      0.91807440	      0.43096676	     16.53613006	     -3.67470564	     -9.53655673	     44.42215014	     44.42215014	     10.12303641	    -10.27173213	     -5.93191060	     30.85527219	     -7.44451704	     -1.60558840	     28.60269773	     28.60269773	     12.06120637	    -10.97449555	      6.17616916	     -9.01273190	      4.06872899	      3.90264884	     37.05541403	    -13.43239353	     -1.20429160	    131.01315454	     43.68467089	      0.00000000	      0.00000000	     -5.58683126	     -7.38063916	     11.35470618	     31.14867173	     44.40973166	      0.00000000	      0.00000000
     42.77128571	    -11.16246738	     -6.27478931	     -3.36278322	      0.97534823	      0.91974509	      0.42913748	     18.28761937	     -3.91038459	     -9.14699097	     47.95815697	     47.95815697	     10.60675406	    -11.79236609	     -1.56690967	     29.86174579	     -7.51907746	     -2.23931407	     27.81117161	     27.81117161	     12.05192142	    -10.24693442	      4.93716564	     -9.03152041	      4.12401291	      4.11171127	     34.23242620	    -14.00714563	     -1.59468263	    129.63058461	     43.77555825	      0.00000000	      0.00000000	     -3.94009042	     -7.76320087	     10.39030337	     31.83674319	     44.67892174	      0.00000000	      0.00000000
     42.78285714	    -11.09862577	     -6.16586043	     -3.44847601	      0.97487668	      0.92129407	      0.42717328	     19.84807014	     -4.40755297	     -8.95251514	     51.10667221	     51.10667221	      9.95573702	    -13.52492019	     -1.37961355	     28.86686266	     -7.34469987	     -2.71415602	     27.16411029	     27.16411029	     12.34619553	     -9.76590967	      4.88612774	     -9.13487041	      4.04712085	      3.84971316	     31.64591800	    -14.12955192	     -1.22148671	    127.99243798	     43.80297783	      0.00000000	      0.00000000	     -2.37392783	     -8.36652144	     10.14524736	     32.47083909	     44.74315358	      0.00000000	      0.00000000
     42.79442857	    -11.02564453	     -6.22585004	     -3.50090165	      0.97426945	      0.92269512	      0.42536123	     21.38425706	     -4.63481110	     -8.71104003	     54.11863275	     54.11863275	      9.67119149	    -15.20206651	     -0.26183594	     27.98103355	     -7.37801235	     -3.19413870	     26.69980124	     26.69980124	     12.66631314	     -9.05391529	      4.67384864	     -9.19945014	      4.15256163	      3.68330669	     29.20812788	    -14.45702066	     -1.26268109	    124.96015098	     43.89986436	      0.00000000	      0.00000000	     -0.79476872	     -8.95480301	      9.69242415	     33.41682820	     44.85157844	      0.00000000	      0.00000000
     42.80600000	    -10.97959173	     -6.18376193	     -3.54667834	      0.97355912	      0.92388598	      0.42352254	     22.95505333	     -5.03569202	     -8.54817577	     56.99834530	     56.99834530	      9.46314908	    -16.41927565	      0.47452024	     27.13233946	     -7.26306831	     -3.59483970	     26.23131007	     26.23131007	     12.96340683	     -8.55284431	      4.58122587	     -9.27285010	      4.16517977	      3.50675025	     26.72225463	    -14.69734662	     -1.13941696	    122.24623839	     43.97626796	      0.00000000	      0.00000000	      0.85652210	     -9.59084064	      9.31180649	     34.27041459	     44.93959162	      0.00000000	      0.00000000
     42.81757143	    -10.89143579	     -6.13398545	     -3.62162861	      0.97283285	      0.92493013	      0.42181890	     24.47961572	     -5.42897986	     -8.33566415	     59.71367566	     59.71367566	      9.36030664	    -17.29474318	      1.03668593	     26.31813158	     -7.15190421	     -3.99001594	     25.91786810	     25.91786810	     13.25942377	     -8.14743150	      4.49951808	     -9.36976443	      4.14255267	      3.38167981	     24.19719804	    -14.86273360	     -1.02104270	    119.35880946	     44.05561815	      0.00000000	      0.00000000	      2.53792697	    -10.23260205	      8.98148832	     35.07631063	     45.01548398	      0.00000000	      0.00000000
     42.82914286	    -10.78481974	     -6.17783398	     -3.65755405	      0.97200644	      0.92586403	      0.42014092	     25.93700472	     -5.71606625	     -8.17934625	     62.19714968	     62.19714968	      9.57274120	    -17.76075999	      2.29231550	     25.55488829	     -7.13527362	     -4.32630363	     25.71162387	     25.71162387	     13.61096921	     -7.65720267	      4.40972280	     -9.45652103	      4.22904530	      3.27172240	     22.17299565	    -15.08530115	     -1.33438187	    115.01972308	     44.20174242	      0.00000000	      0.00000000	      4.30683147	    -10.88494386	      8.59953034	     35.99426952	     45.10520326	      0.00000000	      0.00000000
     42.84071429	    -10.63814608	     -6.21634374	     -3.71644058	      0.97122886	      0.92667819	      0.41870689	     27.36144801	     -5.93331803	     -7.93732589	     64.50640641	     64.50640641	     10.11273843	    -17.94792346	      4.39881681	     24.81040603	     -7.14048320	     -4.67797653	     25.64114470	     25.64114470	     14.05219414	     -7.22501040	      4.39963494	     -9.53433381	      4.29732827	      2.69516166	     20.54381839	    -14.52974067	     -1.31776314	    110.12396313	     44.36625314	      0.00000000	      0.00000000	      5.77893849	    -11.69975501	      8.13086423	     36.83087757	     45.21589381	      0.00000000	      0.00000000
     42.85228571	    -10.54822095	     -6.17226782	     -3.82305146	      0.97036715	      0.92728556	      0.41729930	     28.79211981	     -6.24794366	     -7.68701470	     66.45786177	     66.45786177	     10.11829951	    -18.08114257	      4.76543392	     24.09298991	     -7.04510723	     -5.00828802	     25.50097553	     25.50097553	     14.40293477	     -6.92082061	      4.34440597	     -9.61156088	      4.28489511	      2.91040403	     18.31257753	    -15.08048986	     -1.21929065	    106.36126957	     44.47825568	      0.00000000	      0.00000000	      7.65992718	    -12.29078891	      7.78612572	     37.77959748	     45.29701261	      0.00000000	      0.00000000
     42.86385714	    -10.44715566	     -6.14949892	     -3.94896486	      0.96951015	      0.92783524	      0.41608283	     30.14231622	     -6.48890608	     -7.44029933	     68.05496193	     68.05496193	     10.08221799	    -18.09245213	      5.02779806	     23.38136168	     -7.00233700	     -5.38935353	     25.39756054	     25.39756054	     14.77293863	     -6.57153579	      4.25872016	     -9.71018903	      4.29040087	      3.09353960	     16.32915305	    -15.33449074	     -1.34983825	    101.87805736	     44.62011423	      0.00000000	      0.00000000	      9.53511904	    -12.85671232	      7.51813928	     38.63686398	     45.36668112	      0.00000000	      0.00000000
     42.87542857	    -10.28066840	     -6.20477617	     -4.02794233	      0.96871249	      0.92841612	      0.41502578	     31.34099472	     -6.63268873	     -7.30282891	     69.33580748	     69.33580748	     10.25521046	    -18.00268210	      6.07503080	     22.63222072	     -7.03920680	     -5.71100566	     25.37742598	     25.37742598	     15.32299193	     -6.13543718	      4.38795313	     -9.77248350	      4.35010366	      2.06922407	     15.94065188	    -14.67595497	     -0.47609568	     95.00465919	     44.83486762	      0.00000000	      0.00000000	     10.57367023	    -13.92182729	      6.72721915	     39.94499638	     45.55098616	      0.00000000	      0.00000000
